HIERARCHY
ROOT Hips
{
  OFFSET 2.26061 22.2878 23.7974
  CHANNELS 6 Xposition Yposition Zposition Zrotation Xrotation Yrotation
  JOINT LeftUpLeg
  {
    OFFSET 8.64259 1.95398 -2.38835
    CHANNELS 3 Zrotation Xrotation Yrotation
    JOINT LeftLeg
    {
      OFFSET 43.7702 0 0
      CHANNELS 3 Zrotation Xrotation Yrotation
      JOINT LeftFoot
      {
        OFFSET 40.6238 0 0
        CHANNELS 3 Zrotation Xrotation Yrotation
        JOINT LeftToeBase
        {
          OFFSET 12.7242 0 0
          CHANNELS 3 Zrotation Xrotation Yrotation
          End Site
          {
            OFFSET 0 0 0
          }
        }
      }
    }
  }
  JOINT RightUpLeg
  {
    OFFSET -8.2249 1.95398 -2.59336
    CHANNELS 3 Zrotation Xrotation Yrotation
    JOINT RightLeg
    {
      OFFSET 43.5653 0 0
      CHANNELS 3 Zrotation Xrotation Yrotation
      JOINT RightFoot
      {
        OFFSET 40.6238 0 0
        CHANNELS 3 Zrotation Xrotation Yrotation
        JOINT RightToeBase
        {
          OFFSET 12.7242 0 0
          CHANNELS 3 Zrotation Xrotation Yrotation
          End Site
          {
            OFFSET 0 0 0
          }
        }
      }
    }
  }
  JOINT Spine
  {
    OFFSET 0.165834 0.87714 6.61349
    CHANNELS 3 Zrotation Xrotation Yrotation
    JOINT Spine1
    {
      OFFSET 7.38963 1.71661e-005 0
      CHANNELS 3 Zrotation Xrotation Yrotation
      JOINT Spine2
      {
        OFFSET 11.9445 1.14441e-005 0
        CHANNELS 3 Zrotation Xrotation Yrotation
        JOINT Spine3
        {
          OFFSET 14.7254 4.19617e-005 0
          CHANNELS 3 Zrotation Xrotation Yrotation
          JOINT Spine4
          {
            OFFSET 10.9679 0 0
            CHANNELS 3 Zrotation Xrotation Yrotation
            JOINT RightShoulder
            {
              OFFSET 2.46616 -1.6653 3.69651
              CHANNELS 3 Zrotation Xrotation Yrotation
              JOINT RightArm
              {
                OFFSET 13.0012 0 0
                CHANNELS 3 Zrotation Xrotation Yrotation
                JOINT RightForeArm
                {
                  OFFSET 28.7848 1.52588e-005 0
                  CHANNELS 3 Zrotation Xrotation Yrotation
                  JOINT RightHand
                  {
                    OFFSET 26.5688 1.52588e-005 0
                    CHANNELS 3 Zrotation Xrotation Yrotation
                    End Site
                    {
                      OFFSET 0 0 0
                    }
                  }
                }
              }
            }
            JOINT LeftShoulder
            {
              OFFSET 2.38034 -1.29275 -3.7523
              CHANNELS 3 Zrotation Xrotation Yrotation
              JOINT LeftArm
              {
                OFFSET 16.3182 6.10351e-005 0
                CHANNELS 3 Zrotation Xrotation Yrotation
                JOINT LeftForeArm
                {
                  OFFSET 27.0901 0 0
                  CHANNELS 3 Zrotation Xrotation Yrotation
                  JOINT LeftHand
                  {
                    OFFSET 24.5451 1.52588e-005 0
                    CHANNELS 3 Zrotation Xrotation Yrotation
                    End Site
                    {
                      OFFSET 0 0 0
                    }
                  }
                }
              }
            }
            JOINT Neck
            {
              OFFSET 5.0226 -0.0266342 0
              CHANNELS 3 Zrotation Xrotation Yrotation
              JOINT Head
              {
                OFFSET 6.69363 2.86102e-005 0
                CHANNELS 3 Zrotation Xrotation Yrotation
                End Site
                {
                  OFFSET 0 0 0
                }
              }
            }
          }
        }
      }
    }
  }
}
MOTION
Frames:	7
Frame Time:	0.0416667
-301.442 95.4319 -280.477 87.1062 -35.9414 87.4699 -173.017 13.5479 88.3375 -23.9779 34.3524 -1.34737 56.5322 -5.82749 27.117 29.8383 -0.0992306 10.1069 170.976 1.39893 87.9035 -8.52263 1.26787 -0.083013 65.8977 -2.14718 -1.10669 29.628 0.179639 -2.40691 -0.787698 6.37966 -90.3851 14.1117 -1.74936 -0.533136 2.4418 -1.77113 -0.45561 -20.0999 -1.50826 -1.03434 -0.0872797 -1.50823 -1.03433 93.4459 -47.3552 -95.9842 26.2097 -8.77698 6.00442 -7.39598 -26.9052 -42.1504 -5.26889 -0.992148 7.95254 -98.4671 -61.9789 69.9713 -19.1268 13.5519 4.53449 4.39234 13.6896 -32.2706 7.21317 0.630925 4.21857 7.08225 2.79873 11.0433 -7.12877 0.950398 -4.42888 
-301.337 95.4308 -280.544 86.9397 -36.0808 87.6372 -173.163 13.5525 88.3863 -24.2961 32.3141 -0.976446 57.1797 -5.10857 26.177 29.5451 -0.125723 7.64122 171.165 0.605846 88.1915 -6.8515 0.797438 -0.171781 65.9119 -2.54603 -1.34572 28.8767 0.214982 -3.34374 -0.681975 6.37093 -90.4268 14.1283 -1.56028 -0.6424 2.45818 -1.58702 -0.573109 -20.0812 -1.29508 -1.08167 -0.0685975 -1.29508 -1.08167 92.9332 -47.0766 -96.8535 26.6138 -8.4927 6.48672 -6.7175 -25.9649 -42.0088 -5.65002 -0.965608 7.1669 -100.403 -61.7484 67.3989 -19.3568 13.871 4.76777 1.43955 8.77787 -31.4474 8.25921 0.551918 2.48368 5.05046 3.63201 10.5359 -5.3164 1.97657 -3.78876 
-301.206 95.3757 -280.747 86.5481 -36.7376 87.5105 -173.129 13.1401 88.2815 -23.9982 27.1035 -0.780577 58.8663 -3.38774 23.5316 31.2938 1.84682 2.07609 171.902 0.25268 88.5312 -5.54045 0.169476 -0.927292 67.0382 -3.5089 -1.88456 27.0311 0.363971 -5.4431 -0.485808 6.36519 -90.4114 14.1401 -1.16406 -0.665805 2.46952 -1.19224 -0.613933 -20.0671 -0.910158 -0.984882 -0.0544178 -0.910156 -0.984877 92.3433 -47.6662 -97.6779 26.2791 -7.94034 6.75551 -6.78782 -25.6394 -41.9095 -5.14918 -0.854343 5.9013 -102.996 -61.2663 63.8967 -18.9521 13.3439 5.1854 2.30413 9.86835 -31.7925 8.84565 0.772395 4.40756 2.59174 3.44457 10.1533 -3.00802 2.00229 -3.44709 
-301.173 95.201 -281.032 86.4863 -36.9632 87.5025 -173.088 12.4316 88.0698 -23.9384 18.8984 -0.438906 61.8338 -0.483143 18.1136 32.2338 3.0642 -6.92273 172.193 0.447496 88.5353 -5.67647 -1.65027 -1.33579 67.9104 -3.98117 -2.13553 27.7056 0.508638 -8.08526 -0.345217 6.4514 -90.3368 13.969 -0.848721 -0.560943 2.29823 -0.872583 -0.523056 -20.2374 -0.640912 -0.790091 -0.224728 -0.640903 -0.790087 91.9493 -48.6225 -98.1049 25.903 -7.53916 6.08789 -6.28593 -24.8352 -41.179 -5.11536 -0.805374 5.23721 -104.054 -60.3422 62.2076 -18.7579 13.4746 4.8438 1.35402 8.50534 -31.2906 8.9693 0.661505 3.19465 1.50746 2.8894 9.03427 -1.45729 1.65927 -2.78696 
-301.109 95.0181 -281.391 87.1335 -36.8247 87.8285 -173.368 10.6354 87.6208 -23.2106 7.08366 0.313938 66.1775 3.27067 8.52829 31.4089 2.97498 -15.6276 172.425 -0.833172 89.0624 -5.47399 15.8037 -1.73246 69.7531 -4.46576 -2.26017 30.2483 -1.11377 22.487 -0.225827 6.66822 -90.2202 13.5365 -0.554651 -0.369368 1.86564 -0.570374 -0.344604 -20.6697 -0.418009 -0.518987 -0.657053 -0.418004 -0.518988 92.1826 -49.9572 -97.4799 24.9624 -7.15351 4.87529 -6.26193 -24.589 -41.2211 -5.09709 -0.816948 5.53729 -104.331 -59.1222 61.4047 -18.4084 13.7306 4.18451 1.33751 8.33183 -31.6928 7.77409 0.593499 3.32368 1.96088 2.30252 7.46024 -0.286485 1.23421 -2.26322 
-300.796 94.894 -281.823 87.8115 -36.3763 88.4937 -173.566 7.61196 87.5364 -20.3318 -5.97294 1.08351 71.8045 6.82004 -4.7729 27.7685 1.35544 -21.2412 172.865 -0.934964 89.0396 -6.21743 16.0907 -2.23456 69.163 -4.68479 -2.3944 32.0346 -0.617962 21.4409 -0.0888132 6.88891 -90.1881 13.0955 -0.266704 -0.343523 1.42456 -0.281571 -0.331457 -21.1103 -0.151142 -0.407796 -1.09766 -0.151127 -0.4078 93.5057 -50.9659 -95.2702 24.1001 -7.01363 3.43669 -5.88687 -24.2202 -41.2173 -4.54315 -0.782788 6.01071 -105.635 -58.3221 59.3962 -17.8826 13.345 3.65947 3.02228 10.4622 -32.6455 6.28267 0.591254 4.59339 1.99532 1.52337 6.3925 0.85127 0.586971 -2.02369 
-300.318 94.2507 -282.257 88.1306 -36.13 89.1918 -173.646 5.03379 87.6932 -18.0858 -18.4679 1.75536 79.5589 9.21735 -19.5406 22.81 -1.00299 -23.0179 173.198 1.10692 90.6647 -11.9814 16.5538 -2.29905 70.4255 -4.44873 -2.24164 34.6814 0.00407281 19.0677 -0.0127316 7.05421 -90.1328 12.7653 -0.0887644 -0.254782 1.09438 -0.0998839 -0.250636 -21.4406 -0.00808294 -0.269677 -1.42794 -0.00809172 -0.269685 94.1237 -52.3545 -94.1175 23.3331 -6.58674 3.03325 -6.24734 -24.021 -41.7528 -2.56079 -0.721988 8.20937 -105.162 -56.8493 59.449 -18.3578 13.0933 3.06844 2.71562 9.64806 -32.4776 6.24852 0.511536 3.63828 1.46047 0.87173 4.58061 2.92345 0.195724 -1.50867 
